<svg width="25" height="25" viewBox="0 0 25 25" fill="none" xmlns="http://www.w3.org/2000/svg">
<g clip-path="url(#clip0_45_492)">
<path d="M2.52999 7.21686L2.53023 7.2165C2.0444 6.88738 1.87901 6.23658 2.20102 5.74563L2.20122 5.74532L2.20122 5.74532C2.51301 5.27764 2.87993 4.80521 3.2468 4.38808C3.2468 4.38808 3.2468 4.38808 3.24681 4.38808L2.52999 7.21686ZM2.52999 7.21686L2.53591 7.21982M2.52999 7.21686L2.53591 7.21982M2.53591 7.21982C2.53944 7.22159 2.54309 7.22342 2.54686 7.22531C2.65496 7.27954 2.8609 7.38284 3.12149 7.38347C3.39408 7.38413 3.71893 7.27283 4.05277 6.8979L4.05299 6.8981M2.53591 7.21982L4.05299 6.8981M4.05299 6.8981L4.05615 6.89366M4.05299 6.8981L4.05615 6.89366M4.05615 6.89366C4.31664 6.52797 4.5757 6.16435 4.88435 5.80586M4.05615 6.89366L4.88435 5.80586M4.88435 5.80586C5.26862 5.36874 5.20998 4.66142 4.7745 4.27838L4.88435 5.80586Z" fill="white" stroke="white" stroke-width="0.1"/>
<path d="M15.6215 2.79606L15.6215 2.79609L15.6233 2.79662C16.2864 2.99134 16.7676 2.57278 16.9839 2.14531L16.9849 2.14578L16.9876 2.13585C17.1493 1.54119 16.8267 0.936865 16.2781 0.773054C15.1274 0.406289 13.9757 0.2 12.7732 0.2C12.1782 0.2 11.6817 0.63466 11.6817 1.24145C11.6817 1.84176 12.1167 2.32796 12.7181 2.32796C13.7044 2.32796 14.6854 2.48237 15.6215 2.79606Z" fill="white" stroke="white" stroke-width="0.1"/>
<path d="M21.9455 8.65099L21.9455 8.65099L21.9457 8.65133C22.3088 9.53189 22.5132 10.463 22.618 11.3956L22.6182 11.398L22.619 11.4085C22.6197 11.4175 22.621 11.4305 22.6229 11.4468C22.6268 11.4795 22.6337 11.5258 22.6453 11.5806C22.6686 11.6899 22.7115 11.835 22.7901 11.9753C22.8689 12.1158 22.9844 12.2531 23.1533 12.3437C23.3226 12.4345 23.5412 12.4761 23.8216 12.4323C24.0989 12.396 24.3012 12.3003 24.4476 12.1745C24.5939 12.0489 24.6816 11.8957 24.7336 11.7485C24.7855 11.6015 24.8022 11.4597 24.806 11.3551C24.8079 11.3027 24.8066 11.2592 24.8048 11.2287C24.8038 11.2135 24.8028 11.2014 24.802 11.193L24.801 11.1833L24.8006 11.1806L24.8006 11.1806C24.6949 10.0285 24.3831 8.87743 23.9661 7.83261L23.9663 7.83254L23.9644 7.82878C23.6943 7.28854 23.0977 7.01233 22.549 7.23393L22.5489 7.23379L22.5455 7.23548C22.0002 7.50556 21.7239 8.10216 21.9455 8.65099Z" fill="white" stroke="white" stroke-width="0.1"/>
<path d="M20.3906 6.1148L20.3905 6.11479C19.7678 5.33751 19.0404 4.65992 18.2133 4.09192C17.7186 3.76016 17.6096 3.10789 17.9395 2.61566C17.9395 2.61566 17.9395 2.61566 17.9395 2.61566L20.3906 6.1148ZM20.3906 6.1148C20.6355 6.42036 20.9654 6.50949 21.2515 6.49839M20.3906 6.1148L21.2515 6.49839M21.2515 6.49839C21.3942 6.49284 21.527 6.4624 21.6347 6.421M21.2515 6.49839L21.6347 6.421M21.6347 6.421C21.7389 6.38096 21.825 6.32857 21.8724 6.27389M21.6347 6.421L21.8724 6.27389M21.8724 6.27389C22.3021 5.89338 22.4157 5.1886 22.0299 4.7492L21.8724 6.27389Z" fill="white" stroke="white" stroke-width="0.1"/>
<path d="M7.00713 3.93724L7.0075 3.93826L7.01637 3.9327C7.84351 3.41449 8.78041 3.00087 9.71207 2.74179C10.3086 2.5795 10.6411 1.97664 10.4779 1.42805C10.3155 0.831835 9.71282 0.499485 9.16436 0.662584C8.01334 0.974273 6.91732 1.44685 5.92161 2.07546L5.9216 2.07545L5.92077 2.076C5.42914 2.40028 5.26409 3.05658 5.59613 3.55237C5.7034 3.71708 5.87265 3.88138 6.10842 3.97029C6.34515 4.05955 6.64431 4.07104 7.00713 3.93724Z" fill="white" stroke="white" stroke-width="0.1"/>
<path d="M4.24078 18.388C6.34887 21.3413 9.92542 22.9771 13.5993 22.593C17.374 22.1896 20.661 19.6859 22.0327 16.1268C22.0349 16.1074 22.041 16.0781 22.0488 16.0442C22.0584 16.0026 22.0719 15.9488 22.0881 15.8862C22.1206 15.7609 22.1645 15.5989 22.2114 15.426L22.2142 15.4157C22.3074 15.0721 22.4117 14.6876 22.4635 14.4558C22.5738 13.86 23.1199 13.4737 23.7204 13.6358C24.3207 13.7466 24.7064 14.2927 24.5441 14.8978C24.5039 15.0964 24.4252 15.4674 24.3502 15.8054C24.3126 15.9748 24.276 16.1362 24.2455 16.2634C24.2157 16.3879 24.1909 16.484 24.1768 16.521C24.1768 16.5212 24.1767 16.5215 24.1766 16.5217L24.1299 16.5038C22.5676 20.9803 18.5518 24.17 13.8148 24.6807C9.14453 25.1836 4.9792 22.8892 2.65298 19.7766L4.24078 18.388ZM4.24078 18.388L6.04272 18.7858L6.04272 18.7858L6.0436 18.786C6.58788 18.8959 7.18826 18.567 7.29935 17.9654C7.40897 17.4213 7.08025 16.8213 6.47897 16.7101L2.41884 15.824L2.41884 15.824L2.41762 15.8237C2.27877 15.797 2.00104 15.7975 1.73353 15.9053C1.46342 16.0141 1.20208 16.2334 1.10762 16.6427L1.10762 16.6427L1.10746 16.6435L0.221172 20.7595L0.221168 20.7595L0.221041 20.7601C0.111111 21.3045 0.4402 21.905 1.04213 22.0159L1.0421 22.0161L1.0461 22.0165C1.70829 22.0843 2.18434 21.6913 2.35081 21.1502L2.35097 21.1503L2.35185 21.1462L2.63881 19.8411L4.24078 18.388Z" fill="white" stroke="white" stroke-width="0.1"/>
</g>
<defs>
<clipPath id="clip0_45_492">
<rect width="25" height="25" fill="white"/>
</clipPath>
</defs>
</svg>
