<svg width="25" height="25" viewBox="0 0 25 25" fill="none" xmlns="http://www.w3.org/2000/svg">
<g clip-path="url(#clip0_274_1100)">
<path d="M7.04685 18.2657C7.535 17.7775 8.32646 17.7775 8.81461 18.2657C9.26521 18.7162 9.29987 19.4253 8.91859 19.9157L8.81461 20.0334L5.94198 22.906C5.37247 23.4756 4.4727 23.5136 3.85915 23.0199L3.73228 22.906L2.18546 21.3593C1.6973 20.871 1.6973 20.0797 2.18546 19.5914C2.63606 19.1408 3.3451 19.1062 3.83546 19.4874L3.95322 19.5914L4.83713 20.4754L7.04685 18.2657ZM23 19.4999C23.6904 19.4999 24.25 20.0597 24.25 20.7499C24.25 21.4403 23.6904 21.9999 23 21.9999H11.75C11.0596 21.9999 10.5 21.4403 10.5 20.7499C10.5 20.0597 11.0596 19.4999 11.75 19.4999H23ZM8.81461 9.51566C9.30276 10.0038 9.30276 10.7953 8.81461 11.2834L5.94198 14.156C5.33179 14.7663 4.34247 14.7663 3.73228 14.156L2.18546 12.6092C1.6973 12.121 1.6973 11.3297 2.18546 10.8414C2.67361 10.3533 3.46507 10.3533 3.95322 10.8414L4.83713 11.7254L7.04685 9.51566C7.535 9.0275 8.32646 9.0275 8.81461 9.51566ZM23 10.7499C23.6904 10.7499 24.25 11.3097 24.25 11.9999C24.25 12.641 23.7675 13.1693 23.1458 13.2415L23 13.2499H11.75C11.0596 13.2499 10.5 12.6903 10.5 11.9999C10.5 11.359 10.9825 10.8305 11.6042 10.7583L11.75 10.7499H23ZM7.04685 0.765658C7.535 0.277496 8.32646 0.277496 8.81461 0.765658C9.26521 1.21626 9.29987 1.9253 8.91859 2.41566L8.81461 2.53342L5.94198 5.40605C5.37247 5.97555 4.4727 6.01352 3.85915 5.51995L3.73228 5.40605L2.18546 3.85922C1.6973 3.37107 1.6973 2.57961 2.18546 2.09146C2.63606 1.64085 3.3451 1.60618 3.83546 1.98747L3.95322 2.09146L4.83713 2.97536L7.04685 0.765658ZM23 1.99997C23.6904 1.99997 24.25 2.55961 24.25 3.24997C24.25 3.89101 23.7675 4.41935 23.1458 4.49156L23 4.49997H11.75C11.0596 4.49997 10.5 3.94032 10.5 3.24997C10.5 2.60892 10.9825 2.08059 11.6042 2.00838L11.75 1.99997H23Z" fill="#FDB01A"/>
</g>
<defs>
<clipPath id="clip0_274_1100">
<rect width="25" height="25" fill="white"/>
</clipPath>
</defs>
</svg>
