<svg width="25" height="25" viewBox="0 0 25 25" fill="none" xmlns="http://www.w3.org/2000/svg">
<g clip-path="url(#clip0_274_1098)">
<path d="M12.5001 6.25C12.2238 6.25 11.9589 6.35975 11.7635 6.5551C11.5682 6.75045 11.4584 7.0154 11.4584 7.29167V12.5C11.4585 12.7762 11.5683 13.0412 11.7636 13.2365L14.8886 16.3615C15.0851 16.5512 15.3482 16.6562 15.6213 16.6538C15.8945 16.6515 16.1557 16.5419 16.3489 16.3488C16.542 16.1556 16.6515 15.8944 16.6539 15.6213C16.6563 15.3481 16.5513 15.085 16.3615 14.8885L13.5418 12.0688V7.29167C13.5418 7.0154 13.432 6.75045 13.2367 6.5551C13.0413 6.35975 12.7764 6.25 12.5001 6.25ZM24.8043 10.5542C24.4467 8.28941 23.4731 6.16664 21.99 4.41809C20.5069 2.66954 18.5715 1.36258 16.3954 0.640208C14.2194 -0.0821631 11.8866 -0.192117 9.65227 0.322377C7.41793 0.836871 5.36815 1.95599 3.72717 3.55729V1.04167C3.72717 0.765399 3.61743 0.500447 3.42208 0.305097C3.22672 0.109747 2.96177 0 2.68551 0C2.40924 0 2.14429 0.109747 1.94894 0.305097C1.75359 0.500447 1.64384 0.765399 1.64384 1.04167V5.20833C1.64384 5.76087 1.86333 6.29077 2.25403 6.68147C2.64473 7.07217 3.17464 7.29167 3.72717 7.29167H7.89384C8.17011 7.29167 8.43506 7.18192 8.63041 6.98657C8.82576 6.79122 8.93551 6.52627 8.93551 6.25C8.93551 5.97373 8.82576 5.70878 8.63041 5.51343C8.43506 5.31808 8.17011 5.20833 7.89384 5.20833H5.02821C6.6928 3.51836 8.8848 2.44781 11.241 2.17405C13.5973 1.90029 15.9763 2.43975 17.9841 3.70306C19.9918 4.96636 21.5076 6.87768 22.2805 9.12034C23.0533 11.363 23.0368 13.8024 22.2336 16.0344C21.4303 18.2664 19.8887 20.1569 17.864 21.3929C15.8394 22.6288 13.4532 23.1359 11.1009 22.8302C8.74858 22.5245 6.57131 21.4243 4.92981 19.7119C3.28831 17.9995 2.28111 15.7777 2.07509 13.4146C2.04808 13.1607 1.92708 12.926 1.73587 12.7568C1.54466 12.5876 1.29707 12.496 1.04176 12.5C0.896073 12.5004 0.75207 12.5311 0.61892 12.5902C0.485771 12.6494 0.366394 12.7356 0.268398 12.8433C0.170401 12.9511 0.0959327 13.0782 0.0497377 13.2163C0.0035428 13.3545 -0.0133659 13.5008 8.88676e-05 13.6458C0.164813 15.3057 0.660065 16.9157 1.45667 18.3812C2.25327 19.8466 3.3351 21.1379 4.63845 22.1787C5.94179 23.2196 7.44027 23.9891 9.0456 24.442C10.6509 24.8948 12.3307 25.0217 13.9858 24.8153C15.641 24.6089 17.2381 24.0733 18.6831 23.2401C20.128 22.4069 21.3916 21.2929 22.3994 19.9638C23.4072 18.6347 24.1388 17.1174 24.5511 15.5012C24.9634 13.885 25.0481 12.2026 24.8001 10.5531L24.8043 10.5542Z" fill="#FDB01A"/>
</g>
<defs>
<clipPath id="clip0_274_1098">
<rect width="25" height="25" fill="white"/>
</clipPath>
</defs>
</svg>
