<svg width="50" height="50" viewBox="0 0 50 50" fill="none" xmlns="http://www.w3.org/2000/svg">
<g clip-path="url(#clip0_34_183)">
<path d="M34.7083 4.16667L32.8333 7.875C33.5046 8.2964 34.0625 8.87577 34.4583 9.56251C34.7478 10.1534 34.7927 10.8346 34.5833 11.4583C34.2974 12.4199 33.8071 13.3082 33.1458 14.0625L32.1041 15.1667L31.8541 15.3542L34.8541 18.3333L35.0416 18.0833C35.3958 17.7292 35.7083 17.4375 36.0208 17.1667L36.1458 17.0417C36.903 16.3846 37.7904 15.8948 38.75 15.6042C39.3748 15.4035 40.0527 15.4482 40.6458 15.7292C41.3382 16.1266 41.9187 16.6928 42.3333 17.375L46.0416 15.4792C45.2214 13.9555 43.9471 12.725 42.3958 11.9583C42.0981 11.8325 41.7917 11.7281 41.4791 11.6458L45.6458 7.47917L42.7291 4.54167L38.5625 8.70834C38.4583 8.39584 38.3541 8.08334 38.2291 7.79167C37.459 6.24804 36.2288 4.98146 34.7083 4.16667ZM21.9583 14.0417C21.7157 14.0211 21.4717 14.0211 21.2291 14.0417C21.2291 14.0417 14.8333 22.375 15.25 23.2292C17.6155 24.6074 19.4994 26.6805 20.6458 29.1667C18.2013 27.5096 15.2491 26.7716 12.3125 27.0833C12.3125 27.0833 3.35412 43.125 3.97912 45.8333C6.06246 46.25 11.4583 43.75 18.9583 39.3958C18.8962 37.5266 18.5448 35.6783 17.9166 33.9167C19.7492 34.6566 21.4406 35.7067 22.9166 37.0208C25.166 36.6211 27.1699 35.3575 28.5 33.5C28.7083 33.0833 29.9583 29.5833 28.5 27.9167C30.039 28.6278 31.4475 29.5926 32.6666 30.7708C33.7491 30.1397 34.7927 29.444 35.7916 28.6875C35.7916 28.6875 36.875 24.75 31.0416 18.9167C26.6875 14.5833 23.3541 14.0208 21.9583 14.0417Z" fill="#FDB01A"/>
</g>
<defs>
<clipPath id="clip0_34_183">
<rect width="50" height="50" fill="white"/>
</clipPath>
</defs>
</svg>
