<svg width="26" height="25" viewBox="0 0 26 25" fill="none" xmlns="http://www.w3.org/2000/svg">
<g clip-path="url(#clip0_67_75)">
<path d="M19.5154 9.4548C19.3192 9.03232 18.7672 8.96812 18.4379 9.2975C18.2115 9.52382 18.1652 9.87047 18.2934 10.1637C18.6268 10.9264 18.812 11.7654 18.812 12.6495C18.812 16.0734 16.0244 18.861 12.6005 18.861C9.17658 18.861 6.38895 16.0734 6.38895 12.6495C6.38895 9.2256 9.17658 6.43797 12.6005 6.43797C13.4846 6.43797 14.3236 6.6232 15.0862 6.95657C15.3795 7.08477 15.7262 7.03845 15.9525 6.8121C16.2819 6.48275 16.2177 5.93077 15.7952 5.73462C14.8231 5.28325 13.7416 5.03185 12.6004 5.03185C8.39965 5.03185 4.98278 8.44872 4.98278 12.6495C4.98278 16.8503 8.3997 20.2672 12.6005 20.2672C16.8013 20.2672 20.2181 16.8503 20.2181 12.6496C20.2181 11.5084 19.9667 10.4269 19.5154 9.4548ZM16.4076 12.6496C16.4075 12.1185 15.786 11.9516 15.4099 12.3267L15.2381 12.498C15.0837 12.6519 15.0003 12.8601 14.9622 13.0747C14.7624 14.1988 13.7821 15.0505 12.6005 15.0505C11.2752 15.0505 10.1996 13.9749 10.1996 12.6496C10.1996 11.467 11.0527 10.4861 12.1783 10.2874C12.3912 10.2498 12.5977 10.1674 12.7508 10.0147L12.9219 9.84417C13.2981 9.46902 13.1319 8.8426 12.6006 8.8426C10.502 8.8426 8.7935 10.551 8.7935 12.6496C8.7935 14.7483 10.502 16.4568 12.6006 16.4568C14.6992 16.4568 16.4076 14.7483 16.4076 12.6496ZM22.9852 7.48375C22.7777 7.06865 22.2278 7.00152 21.8997 7.3297C21.6742 7.55517 21.6278 7.90167 21.7677 8.18825C22.4249 9.53512 22.7948 11.0489 22.7948 12.6496C22.7948 18.2705 18.2214 22.844 12.6005 22.844C6.97953 22.844 2.40612 18.2705 2.40612 12.6495C2.40612 7.0286 6.97953 2.4552 12.6005 2.4552C14.2011 2.4552 15.7149 2.8251 17.0618 3.48232C17.3484 3.62215 17.6949 3.57582 17.9204 3.35035C18.2486 3.02217 18.1814 2.4723 17.7663 2.26479C16.21 1.48684 14.4549 1.04913 12.6005 1.04913C6.20263 1.04913 1 6.25177 1 12.6495C1 19.0473 6.20263 24.25 12.6005 24.25C18.9983 24.25 24.201 19.0473 24.201 12.6495C24.201 10.7952 23.7632 9.04005 22.9852 7.48375ZM21.4992 6.2366C21.1974 6.53837 20.7748 6.68662 20.3507 6.63952C19.9265 6.5924 19.5039 6.74065 19.2021 7.04242L13.0673 13.1769C12.7928 13.4515 12.3477 13.4515 12.0732 13.1769C11.7986 12.9023 11.7986 12.4573 12.0732 12.1828L18.2076 6.04827C18.5094 5.7465 18.6577 5.32392 18.6106 4.89977C18.5635 4.47562 18.7117 4.05305 19.0135 3.7513L21.1828 1.58191C21.659 1.10579 22.4725 1.33115 22.6357 1.98439C22.7133 2.29476 22.9557 2.5371 23.266 2.61467C23.9193 2.77795 24.1446 3.59145 23.6684 4.06752L21.4992 6.2366Z" fill="#FDB01A" stroke="#FDB01A" stroke-width="0.7"/>
</g>
<defs>
<clipPath id="clip0_67_75">
<rect width="25" height="25" fill="white" transform="translate(0.5)"/>
</clipPath>
</defs>
</svg>
