<svg width="26" height="25" viewBox="0 0 26 25" fill="none" xmlns="http://www.w3.org/2000/svg">
<g clip-path="url(#clip0_163_2601)">
<path d="M25.4798 23.2094L18.307 16.0314C19.721 14.3355 20.5715 12.1683 20.5715 9.80122C20.5715 4.40107 16.1397 0.0102539 10.6884 0.0102539C5.23698 0.0102539 0.794922 4.4062 0.794922 9.80634C0.794922 15.2065 5.22673 19.5973 10.6781 19.5973C12.9939 19.5973 15.1253 18.8032 16.816 17.4762L24.0145 24.6747C24.4346 25.0948 25.0597 25.0948 25.4798 24.6747C25.9 24.2545 25.9 23.6295 25.4798 23.2094ZM2.89555 9.80634C2.89555 5.5641 6.38976 2.116 10.6781 2.116C14.9665 2.116 18.4607 5.5641 18.4607 9.80634C18.4607 14.0486 14.9665 17.4967 10.6781 17.4967C6.38976 17.4967 2.89555 14.0435 2.89555 9.80634Z" fill="#FDB01A"/>
</g>
<defs>
<clipPath id="clip0_163_2601">
<rect width="25" height="25" fill="white" transform="translate(0.794922)"/>
</clipPath>
</defs>
</svg>
